<svg preserveAspectRatio="none" width="100%" height="100%" overflow="visible" style="display: block;" viewBox="0 0 49 39.2" fill="none" xmlns="http://www.w3.org/2000/svg">
<path id="Vector" d="M2.94 0C1.32836 0 0 1.32836 0 2.94V36.26C0 37.8716 1.32836 39.2 2.94 39.2H46.06C47.6716 39.2 49 37.8716 49 36.26V2.94C49 1.32836 47.6716 0 46.06 0H2.94ZM2.94 1.96H18.62V37.24H2.94C2.39641 37.24 1.96 36.8036 1.96 36.26V2.94C1.96 2.39641 2.39641 1.96 2.94 1.96ZM20.58 1.96H46.06C46.6036 1.96 47.04 2.39641 47.04 2.94V36.26C47.04 36.8036 46.6036 37.24 46.06 37.24H20.58V1.96ZM6.86 3.92C5.24836 3.92 3.92 5.24836 3.92 6.86C3.92 8.47164 5.24836 9.8 6.86 9.8C8.47164 9.8 9.8 8.47164 9.8 6.86C9.8 5.24836 8.47164 3.92 6.86 3.92ZM13.72 3.92C12.1084 3.92 10.78 5.24836 10.78 6.86C10.78 8.47164 12.1084 9.8 13.72 9.8C15.3316 9.8 16.66 8.47164 16.66 6.86C16.66 5.24836 15.3316 3.92 13.72 3.92ZM6.86 5.88C7.41125 5.88 7.84 6.30875 7.84 6.86C7.84 7.41125 7.41125 7.84 6.86 7.84C6.30875 7.84 5.88 7.41125 5.88 6.86C5.88 6.30875 6.30875 5.88 6.86 5.88ZM13.72 5.88C14.2713 5.88 14.7 6.30875 14.7 6.86C14.7 7.41125 14.2713 7.84 13.72 7.84C13.1688 7.84 12.74 7.41125 12.74 6.86C12.74 6.30875 13.1688 5.88 13.72 5.88ZM4.71625 11.76C4.24922 11.848 3.91234 12.2615 3.92 12.74V16.66C3.92 17.1998 4.36023 17.64 4.9 17.64H15.68C16.2198 17.64 16.66 17.1998 16.66 16.66V12.74C16.66 12.2002 16.2198 11.76 15.68 11.76H4.9C4.86938 11.76 4.83875 11.76 4.80813 11.76C4.7775 11.76 4.74688 11.76 4.71625 11.76ZM5.88 13.72H14.7V15.68H5.88V13.72Z" fill="white"/>
</svg>
