<svg preserveAspectRatio="none" width="100%" height="100%" overflow="visible" style="display: block;" viewBox="0 0 47.0364 45.0728" fill="none" xmlns="http://www.w3.org/2000/svg">
<path id="Vector" d="M9.4898 0.00446391C8.34099 0.0688872 7.27693 0.821268 6.86945 1.97021L0.174058 20.8275C-0.370565 22.3591 0.403839 24.0783 1.92543 24.6461L3.91796 25.3888V33.3168C3.91796 34.9289 5.24589 36.2568 6.85796 36.2568H9.35199L11.7924 43.1053C12.3387 44.6374 14.0507 45.4601 15.5746 44.8931L45.1067 33.9121C46.6304 33.3451 47.4082 31.6238 46.8619 30.0916L40.1435 11.2343C39.5973 9.70221 37.8852 8.87946 36.3613 9.44653L35.9249 9.60923L10.6459 0.180558C10.2654 0.0385625 9.87274 -0.0170105 9.4898 0.00446391ZM9.57785 1.95298C9.70296 1.94794 9.83302 1.96851 9.96066 2.01614L30.822 9.79681H6.85796C6.60735 9.79681 6.36741 9.83799 6.13445 9.89825L8.71652 2.62482H8.71843C8.86515 2.21114 9.20252 1.9681 9.57785 1.95298ZM37.4294 11.219C37.8082 11.2345 38.1509 11.4791 38.2984 11.8927H38.2964L45.0148 30.7501C45.2113 31.3013 44.938 31.8831 44.4234 32.0746L38.9989 34.092L31.4537 13.3608L37.0446 11.2821C37.1733 11.2343 37.3031 11.2138 37.4294 11.219ZM6.85796 11.7568H30.1464L6.82925 20.4275C6.46586 20.5627 6.14869 20.7668 5.87796 21.0151V12.7368C5.87796 12.1831 6.30423 11.7568 6.85796 11.7568ZM35.768 13.7168C35.3781 13.7168 35.0042 13.8717 34.7285 14.1474C34.4528 14.423 34.298 14.7969 34.298 15.1868C34.298 15.5767 34.4528 15.9506 34.7285 16.2263C35.0042 16.5019 35.3781 16.6568 35.768 16.6568C36.1578 16.6568 36.5317 16.5019 36.8074 16.2263C37.0831 15.9506 37.238 15.5767 37.238 15.1868C37.238 14.7969 37.0831 14.423 36.8074 14.1474C36.5317 13.8717 36.1578 13.7168 35.768 13.7168ZM29.6162 14.0441L37.1614 34.7753L14.8913 43.0575C14.3768 43.2489 13.8342 42.9983 13.6376 42.4469H13.6395L6.91921 23.5895C6.72285 23.0388 6.99769 22.4566 7.51257 22.265L29.6162 14.0441ZM3.91796 16.1419V23.2967L2.61066 22.8086C2.09973 22.6179 1.82487 22.036 2.02113 21.4841L3.91796 16.1419ZM5.87796 26.5047L8.65335 34.2968H6.85796C6.30423 34.2968 5.87796 33.8705 5.87796 33.3168V26.5047Z" fill="white"/>
</svg>
