<svg preserveAspectRatio="none" width="100%" height="100%" overflow="visible" style="display: block;" viewBox="0 0 47.04 37.24" fill="none" xmlns="http://www.w3.org/2000/svg">
<path id="Vector" d="M4.9 0C2.20541 0 0 2.20541 0 4.9C0 7.59459 2.20541 9.8 4.9 9.8C7.59459 9.8 9.8 7.59459 9.8 4.9C9.8 2.20541 7.59459 0 4.9 0ZM4.9 1.96C6.53533 1.96 7.84 3.26467 7.84 4.9C7.84 6.53532 6.53533 7.84 4.9 7.84C3.26468 7.84 1.96 6.53532 1.96 4.9C1.96 3.26467 3.26468 1.96 4.9 1.96ZM4.9 3.92C4.64009 3.92 4.39082 4.02325 4.20704 4.20704C4.02325 4.39082 3.92 4.64009 3.92 4.9C3.92 5.15991 4.02325 5.40918 4.20704 5.59296C4.39082 5.77675 4.64009 5.88 4.9 5.88C5.15991 5.88 5.40918 5.77675 5.59296 5.59296C5.77675 5.40918 5.88 5.15991 5.88 4.9C5.88 4.64009 5.77675 4.39082 5.59296 4.20704C5.40918 4.02325 5.15991 3.92 4.9 3.92ZM11.76 3.92V5.88H47.04V3.92H11.76ZM4.9 13.72C2.20541 13.72 0 15.9254 0 18.62C0 21.3146 2.20541 23.52 4.9 23.52C7.59459 23.52 9.8 21.3146 9.8 18.62C9.8 15.9254 7.59459 13.72 4.9 13.72ZM4.9 15.68C6.53533 15.68 7.84 16.9847 7.84 18.62C7.84 20.2553 6.53533 21.56 4.9 21.56C3.26468 21.56 1.96 20.2553 1.96 18.62C1.96 16.9847 3.26468 15.68 4.9 15.68ZM11.76 17.64V19.6H47.04V17.64H11.76ZM4.9 27.44C2.20541 27.44 0 29.6454 0 32.34C0 35.0346 2.20541 37.24 4.9 37.24C7.59459 37.24 9.8 35.0346 9.8 32.34C9.8 29.6454 7.59459 27.44 4.9 27.44ZM4.9 29.4C6.53533 29.4 7.84 30.7047 7.84 32.34C7.84 33.9753 6.53533 35.28 4.9 35.28C3.26468 35.28 1.96 33.9753 1.96 32.34C1.96 30.7047 3.26468 29.4 4.9 29.4ZM11.76 31.36V33.32H47.04V31.36H11.76Z" fill="white"/>
</svg>
