<svg xmlns="http://www.w3.org/2000/svg" viewBox="0 0 1440 300" preserveAspectRatio="none" role="presentation" aria-hidden="true">
  <g fill="#918e80">
    <rect x="40" y="150" width="110" height="150"/>
    <rect x="240" y="120" width="120" height="180"/>
    <rect x="430" y="140" width="110" height="160"/>
    <rect x="660" y="110" width="120" height="190"/>
    <rect x="880" y="130" width="120" height="170"/>
    <rect x="1080" y="120" width="120" height="180"/>
    <rect x="1290" y="140" width="150" height="160"/>
  </g>
  <g fill="#6b6960">
    <rect x="0" y="180" width="90" height="120"/>
    <rect x="95" y="120" width="70" height="180"/>
    <rect x="170" y="60" width="120" height="240"/>
    <rect x="300" y="150" width="80" height="150"/>
    <rect x="390" y="30" width="110" height="270"/>
    <rect x="510" y="120" width="90" height="180"/>
    <rect x="610" y="90" width="140" height="210"/>
    <rect x="760" y="150" width="80" height="150"/>
    <rect x="850" y="50" width="120" height="250"/>
    <rect x="980" y="110" width="90" height="190"/>
    <rect x="1080" y="80" width="130" height="220"/>
    <rect x="1220" y="140" width="80" height="160"/>
    <rect x="1310" y="70" width="130" height="230"/>
    <rect x="210" y="42" width="42" height="18"/>
    <rect x="426" y="8" width="22" height="22"/>
    <rect x="884" y="44" width="34" height="16"/>
  </g>
</svg>
