<svg preserveAspectRatio="none" width="100%" height="100%" overflow="visible" style="display: block;" viewBox="0 0 358 307" fill="none" xmlns="http://www.w3.org/2000/svg">
<g id="cov-map-svg" clip-path="url(#clip0_0_5)">
<g id="Group" opacity="0.6">
<path id="Vector" d="M0 51.1667H358" stroke="#DFE2DC" stroke-width="0.5"/>
<path id="Vector_2" d="M0 102.333H358" stroke="#DFE2DC" stroke-width="0.5"/>
<path id="Vector_3" d="M0 153.5H358" stroke="#DFE2DC" stroke-width="0.5"/>
<path id="Vector_4" d="M0 204.667H358" stroke="#DFE2DC" stroke-width="0.5"/>
<path id="Vector_5" d="M0 255.833H358" stroke="#DFE2DC" stroke-width="0.5"/>
<path id="Vector_6" d="M51.1429 0V307" stroke="#DFE2DC" stroke-width="0.5"/>
<path id="Vector_7" d="M102.286 0V307" stroke="#DFE2DC" stroke-width="0.5"/>
<path id="Vector_8" d="M153.429 0V307" stroke="#DFE2DC" stroke-width="0.5"/>
<path id="Vector_9" d="M204.571 0V307" stroke="#DFE2DC" stroke-width="0.5"/>
<path id="Vector_10" d="M255.714 0V307" stroke="#DFE2DC" stroke-width="0.5"/>
<path id="Vector_11" d="M306.857 0V307" stroke="#DFE2DC" stroke-width="0.5"/>
</g>
<path id="Vector_12" d="M153.429 17.0556L196.048 11.9389L234.405 20.4667L254.01 37.5222L257.419 63.1056L238.667 73.3389L214.8 69.9278L190.933 66.5167L168.771 57.9889L153.429 42.6389V17.0556Z" stroke="#9AA09A" stroke-dasharray="2 3"/>
<path id="Vector_13" d="M143.2 51.1667L158.543 59.6944L168.771 80.1611L175.59 110.861L182.41 143.267L189.229 173.967L187.524 204.667L179 223.428L167.067 228.544L156.838 216.606L150.019 192.728L143.2 165.439L136.381 136.444L132.971 107.45L134.676 80.1611L143.2 51.1667Z" fill="#EFF1EE" stroke="#15171A" stroke-width="1.4" stroke-linejoin="round"/>
<path id="Vector_14" d="M189.229 68.2222L245.486 61.4L296.629 69.9278L330.724 90.3944L340.952 124.506L330.724 158.617L306.857 184.2L265.943 199.55L223.324 197.844L197.752 185.906L190.933 167.144L189.229 139.856L187.524 112.567L189.229 68.2222Z" fill="#EFF1EE" stroke="#15171A" stroke-width="1.4" stroke-linejoin="round"/>
<path id="Vector_15" d="M173.886 209.783L204.571 199.55L240.371 204.667L271.057 216.606L293.219 237.072L296.629 260.95L279.581 279.711L245.486 289.944L207.981 291.65L179 281.417L161.952 264.361L156.838 242.189L163.657 223.428L173.886 209.783Z" fill="#EFF1EE" stroke="#15171A" stroke-width="1.4" stroke-linejoin="round"/>
<path id="Vector_16" d="M75.0095 238.778L109.105 231.956L134.676 242.189L139.79 262.656L126.152 279.711L95.4667 283.122L71.6 272.889L66.4857 254.128L75.0095 238.778Z" stroke="#9AA09A" stroke-dasharray="2 3"/>
<path id="Vector_17" opacity="0.2" d="M158.543 194.433C163.25 194.433 167.067 190.615 167.067 185.906C167.067 181.196 163.25 177.378 158.543 177.378C153.835 177.378 150.019 181.196 150.019 185.906C150.019 190.615 153.835 194.433 158.543 194.433Z" fill="#C9C42B"/>
<path id="Vector_18" d="M158.543 189.743C160.661 189.743 162.379 188.025 162.379 185.906C162.379 183.786 160.661 182.068 158.543 182.068C156.424 182.068 154.707 183.786 154.707 185.906C154.707 188.025 156.424 189.743 158.543 189.743Z" fill="#15171A"/>
<path id="Vector_19" d="M158.543 187.611C159.484 187.611 160.248 186.848 160.248 185.906C160.248 184.964 159.484 184.2 158.543 184.2C157.601 184.2 156.838 184.964 156.838 185.906C156.838 186.848 157.601 187.611 158.543 187.611Z" fill="#C9C42B"/>
<path id="Vector_20" opacity="0.2" d="M163.657 153.5C168.365 153.5 172.181 149.682 172.181 144.972C172.181 140.262 168.365 136.444 163.657 136.444C158.95 136.444 155.133 140.262 155.133 144.972C155.133 149.682 158.95 153.5 163.657 153.5Z" fill="#C9C42B"/>
<path id="Vector_21" d="M163.657 148.81C165.776 148.81 167.493 147.092 167.493 144.972C167.493 142.853 165.776 141.135 163.657 141.135C161.539 141.135 159.821 142.853 159.821 144.972C159.821 147.092 161.539 148.81 163.657 148.81Z" fill="#15171A"/>
<path id="Vector_22" d="M163.657 146.678C164.599 146.678 165.362 145.914 165.362 144.972C165.362 144.03 164.599 143.267 163.657 143.267C162.716 143.267 161.952 144.03 161.952 144.972C161.952 145.914 162.716 146.678 163.657 146.678Z" fill="#C9C42B"/>
<path id="Vector_23" opacity="0.2" d="M168.771 110.861C173.479 110.861 177.295 107.043 177.295 102.333C177.295 97.6236 173.479 93.8056 168.771 93.8056C164.064 93.8056 160.248 97.6236 160.248 102.333C160.248 107.043 164.064 110.861 168.771 110.861Z" fill="#C9C42B"/>
<path id="Vector_24" d="M168.771 106.171C170.89 106.171 172.607 104.453 172.607 102.333C172.607 100.214 170.89 98.4958 168.771 98.4958C166.653 98.4958 164.936 100.214 164.936 102.333C164.936 104.453 166.653 106.171 168.771 106.171Z" fill="#15171A"/>
<path id="Vector_25" d="M168.771 104.039C169.713 104.039 170.476 103.275 170.476 102.333C170.476 101.391 169.713 100.628 168.771 100.628C167.83 100.628 167.067 101.391 167.067 102.333C167.067 103.275 167.83 104.039 168.771 104.039Z" fill="#C9C42B"/>
<path id="Vector_26" opacity="0.2" d="M216.505 143.267C221.212 143.267 225.029 139.449 225.029 134.739C225.029 130.029 221.212 126.211 216.505 126.211C211.797 126.211 207.981 130.029 207.981 134.739C207.981 139.449 211.797 143.267 216.505 143.267Z" fill="#C9C42B"/>
<path id="Vector_27" d="M216.505 138.576C218.623 138.576 220.34 136.858 220.34 134.739C220.34 132.619 218.623 130.901 216.505 130.901C214.386 130.901 212.669 132.619 212.669 134.739C212.669 136.858 214.386 138.576 216.505 138.576Z" fill="#15171A"/>
<path id="Vector_28" d="M216.505 136.444C217.446 136.444 218.21 135.681 218.21 134.739C218.21 133.797 217.446 133.033 216.505 133.033C215.563 133.033 214.8 133.797 214.8 134.739C214.8 135.681 215.563 136.444 216.505 136.444Z" fill="#C9C42B"/>
<path id="Vector_29" opacity="0.2" d="M235.257 114.272C239.965 114.272 243.781 110.454 243.781 105.744C243.781 101.035 239.965 97.2167 235.257 97.2167C230.55 97.2167 226.733 101.035 226.733 105.744C226.733 110.454 230.55 114.272 235.257 114.272Z" fill="#C9C42B"/>
<path id="Vector_30" d="M235.257 109.582C237.376 109.582 239.093 107.864 239.093 105.744C239.093 103.625 237.376 101.907 235.257 101.907C233.139 101.907 231.421 103.625 231.421 105.744C231.421 107.864 233.139 109.582 235.257 109.582Z" fill="#15171A"/>
<path id="Vector_31" d="M235.257 107.45C236.199 107.45 236.962 106.686 236.962 105.744C236.962 104.802 236.199 104.039 235.257 104.039C234.316 104.039 233.552 104.802 233.552 105.744C233.552 106.686 234.316 107.45 235.257 107.45Z" fill="#C9C42B"/>
<path id="Vector_32" opacity="0.2" d="M194.343 237.072C199.05 237.072 202.867 233.254 202.867 228.544C202.867 223.835 199.05 220.017 194.343 220.017C189.635 220.017 185.819 223.835 185.819 228.544C185.819 233.254 189.635 237.072 194.343 237.072Z" fill="#C9C42B"/>
<path id="Vector_33" d="M194.343 232.382C196.461 232.382 198.179 230.664 198.179 228.544C198.179 226.425 196.461 224.707 194.343 224.707C192.224 224.707 190.507 226.425 190.507 228.544C190.507 230.664 192.224 232.382 194.343 232.382Z" fill="#15171A"/>
<path id="Vector_34" d="M194.343 230.25C195.284 230.25 196.048 229.486 196.048 228.544C196.048 227.602 195.284 226.839 194.343 226.839C193.401 226.839 192.638 227.602 192.638 228.544C192.638 229.486 193.401 230.25 194.343 230.25Z" fill="#C9C42B"/>
<path id="Vector_35" opacity="0.2" d="M216.505 255.833C221.212 255.833 225.029 252.015 225.029 247.306C225.029 242.596 221.212 238.778 216.505 238.778C211.797 238.778 207.981 242.596 207.981 247.306C207.981 252.015 211.797 255.833 216.505 255.833Z" fill="#C9C42B"/>
<path id="Vector_36" d="M216.505 251.143C218.623 251.143 220.34 249.425 220.34 247.306C220.34 245.186 218.623 243.468 216.505 243.468C214.386 243.468 212.669 245.186 212.669 247.306C212.669 249.425 214.386 251.143 216.505 251.143Z" fill="#15171A"/>
<path id="Vector_37" d="M216.505 249.011C217.446 249.011 218.21 248.248 218.21 247.306C218.21 246.364 217.446 245.6 216.505 245.6C215.563 245.6 214.8 246.364 214.8 247.306C214.8 248.248 215.563 249.011 216.505 249.011Z" fill="#C9C42B"/>
<path id="Vector_38" opacity="0.2" d="M245.486 266.067C250.193 266.067 254.01 262.249 254.01 257.539C254.01 252.829 250.193 249.011 245.486 249.011C240.778 249.011 236.962 252.829 236.962 257.539C236.962 262.249 240.778 266.067 245.486 266.067Z" fill="#C9C42B"/>
<path id="Vector_39" d="M245.486 261.376C247.604 261.376 249.321 259.658 249.321 257.539C249.321 255.419 247.604 253.701 245.486 253.701C243.367 253.701 241.65 255.419 241.65 257.539C241.65 259.658 243.367 261.376 245.486 261.376Z" fill="#15171A"/>
<path id="Vector_40" d="M245.486 259.244C246.427 259.244 247.19 258.481 247.19 257.539C247.19 256.597 246.427 255.833 245.486 255.833C244.544 255.833 243.781 256.597 243.781 257.539C243.781 258.481 244.544 259.244 245.486 259.244Z" fill="#C9C42B"/>
</g>
<defs>
<clipPath id="clip0_0_5">
<rect width="358" height="307" fill="white"/>
</clipPath>
</defs>
</svg>
